<svg width="1400" height="1000" xmlns="http://www.w3.org/2000/svg">
  <!-- 背景 -->
  <rect width="1400" height="1000" fill="#ffffff" stroke="none"/>
  
  <!-- 标题 -->
  <text x="700" y="40" text-anchor="middle" font-family="Arial" font-size="24" font-weight="bold" fill="#212121">
    哲学系统MBSE架构图 - 基于思维框架的完整哲学体系
  </text>
  
  <!-- 图例说明 -->
  <g id="legend">
    <rect x="1150" y="80" width="220" height="180" fill="#fafafa" stroke="#bdbdbd" stroke-width="1"/>
    <text x="1160" y="100" font-family="Arial" font-size="14" font-weight="bold" fill="#212121">图例说明</text>
    
    <!-- 价值体系 -->
    <rect x="1160" y="110" width="20" height="15" fill="#e8eaf6" stroke="#3f51b5" stroke-width="2"/>
    <text x="1190" y="122" font-family="Arial" font-size="12" fill="#424242">价值体系层</text>
    
    <!-- 本体论 -->
    <rect x="1160" y="130" width="20" height="15" fill="#e3f2fd" stroke="#1976d2" stroke-width="2"/>
    <text x="1190" y="142" font-family="Arial" font-size="12" fill="#424242">本体论层</text>
    
    <!-- 认识论 -->
    <rect x="1160" y="150" width="20" height="15" fill="#f1f8e9" stroke="#4caf50" stroke-width="2"/>
    <text x="1190" y="162" font-family="Arial" font-size="12" fill="#424242">认识论层</text>
    
    <!-- 方法论 -->
    <rect x="1160" y="170" width="20" height="15" fill="#fff3e0" stroke="#ff9800" stroke-width="2"/>
    <text x="1190" y="182" font-family="Arial" font-size="12" fill="#424242">方法论层</text>
    
    <!-- 逻辑层 -->
    <rect x="1160" y="190" width="20" height="15" fill="#f3e5f5" stroke="#7b1fa2" stroke-width="2"/>
    <text x="1190" y="202" font-family="Arial" font-size="12" fill="#424242">逻辑层</text>
    
    <!-- 实践层 -->
    <rect x="1160" y="210" width="20" height="15" fill="#fce4ec" stroke="#e91e63" stroke-width="2"/>
    <text x="1190" y="222" font-family="Arial" font-size="12" fill="#424242">实践层</text>
    
    <!-- 关系说明 -->
    <text x="1160" y="240" font-family="Arial" font-size="12" font-weight="bold" fill="#424242">关系类型:</text>
    <line x1="1160" y1="245" x2="1180" y2="245" stroke="#212121" stroke-width="2" marker-end="url(#arrowhead)"/>
    <text x="1185" y="249" font-family="Arial" font-size="10" fill="#666666">组合关系</text>
  </g>
  
  <!-- 定义箭头标记 -->
  <defs>
    <marker id="arrowhead" markerWidth="10" markerHeight="7" refX="9" refY="3.5" orient="auto">
      <polygon points="0 0, 10 3.5, 0 7" fill="#212121"/>
    </marker>
    <marker id="dependency" markerWidth="10" markerHeight="7" refX="9" refY="3.5" orient="auto">
      <polygon points="0 0, 10 3.5, 0 7" fill="#757575"/>
    </marker>
  </defs>
  
  <!-- 第一层：价值体系层 -->
  <g id="value-system-layer">
    <rect x="100" y="100" width="1000" height="80" fill="#e8eaf6" stroke="#3f51b5" stroke-width="2" rx="5"/>
    <text x="110" y="120" font-family="Arial" font-size="12" font-style="italic" fill="#666666">«价值体系层»</text>
    <text x="110" y="140" font-family="Arial" font-size="16" font-weight="bold" fill="#212121">价值体系 (Value System)</text>
    
    <!-- 价值体系子模块 -->
    <rect x="120" y="150" width="120" height="25" fill="#ffffff" stroke="#3f51b5" stroke-width="1" rx="3"/>
    <text x="130" y="167" font-family="Arial" font-size="12" fill="#212121">伦理道德</text>
    
    <rect x="260" y="150" width="120" height="25" fill="#ffffff" stroke="#3f51b5" stroke-width="1" rx="3"/>
    <text x="270" y="167" font-family="Arial" font-size="12" fill="#212121">福德与功德</text>
    
    <rect x="400" y="150" width="120" height="25" fill="#ffffff" stroke="#3f51b5" stroke-width="1" rx="3"/>
    <text x="410" y="167" font-family="Arial" font-size="12" fill="#212121">布施持戒</text>
    
    <rect x="540" y="150" width="120" height="25" fill="#ffffff" stroke="#3f51b5" stroke-width="1" rx="3"/>
    <text x="550" y="167" font-family="Arial" font-size="12" fill="#212121">忍辱精进</text>
    
    <rect x="680" y="150" width="120" height="25" fill="#ffffff" stroke="#3f51b5" stroke-width="1" rx="3"/>
    <text x="690" y="167" font-family="Arial" font-size="12" fill="#212121">禅定智慧</text>
  </g>
  
  <!-- 第二层：本体论层 -->
  <g id="ontology-layer">
    <rect x="100" y="200" width="1000" height="100" fill="#e3f2fd" stroke="#1976d2" stroke-width="2" rx="5"/>
    <text x="110" y="220" font-family="Arial" font-size="12" font-style="italic" fill="#666666">«本体论层»</text>
    <text x="110" y="240" font-family="Arial" font-size="16" font-weight="bold" fill="#212121">本体论 (Ontology)</text>
    
    <!-- 本体论核心概念 -->
    <rect x="120" y="250" width="100" height="40" fill="#ffffff" stroke="#1976d2" stroke-width="1" rx="3"/>
    <text x="130" y="265" font-family="Arial" font-size="12" fill="#212121">空性思想</text>
    <text x="125" y="280" font-family="Arial" font-size="10" fill="#666666">一切法无自性</text>
    
    <rect x="240" y="250" width="100" height="40" fill="#ffffff" stroke="#1976d2" stroke-width="1" rx="3"/>
    <text x="250" y="265" font-family="Arial" font-size="12" fill="#212121">中道思想</text>
    <text x="245" y="280" font-family="Arial" font-size="10" fill="#666666">不执两边</text>
    
    <rect x="360" y="250" width="100" height="40" fill="#ffffff" stroke="#1976d2" stroke-width="1" rx="3"/>
    <text x="370" y="265" font-family="Arial" font-size="12" fill="#212121">无我思想</text>
    <text x="365" y="280" font-family="Arial" font-size="10" fill="#666666">去我执</text>
    
    <rect x="480" y="250" width="100" height="40" fill="#ffffff" stroke="#1976d2" stroke-width="1" rx="3"/>
    <text x="490" y="265" font-family="Arial" font-size="12" fill="#212121">因缘和合</text>
    <text x="485" y="280" font-family="Arial" font-size="10" fill="#666666">诸法因缘起</text>
    
    <rect x="600" y="250" width="100" height="40" fill="#ffffff" stroke="#1976d2" stroke-width="1" rx="3"/>
    <text x="610" y="265" font-family="Arial" font-size="12" fill="#212121">形而上学</text>
    <text x="605" y="280" font-family="Arial" font-size="10" fill="#666666">终极实体</text>
  </g>
  
  <!-- 第三层：认识论层 -->
  <g id="epistemology-layer">
    <rect x="100" y="320" width="1000" height="100" fill="#f1f8e9" stroke="#4caf50" stroke-width="2" rx="5"/>
    <text x="110" y="340" font-family="Arial" font-size="12" font-style="italic" fill="#666666">«认识论层»</text>
    <text x="110" y="360" font-family="Arial" font-size="16" font-weight="bold" fill="#212121">认识论 (Epistemology)</text>
    
    <!-- 三个般若层次 -->
    <rect x="120" y="370" width="120" height="40" fill="#ffffff" stroke="#4caf50" stroke-width="1" rx="3"/>
    <text x="130" y="385" font-family="Arial" font-size="12" fill="#212121">文字般若</text>
    <text x="125" y="400" font-family="Arial" font-size="10" fill="#666666">理论学习</text>
    
    <rect x="260" y="370" width="120" height="40" fill="#ffffff" stroke="#4caf50" stroke-width="1" rx="3"/>
    <text x="270" y="385" font-family="Arial" font-size="12" fill="#212121">观照般若</text>
    <text x="265" y="400" font-family="Arial" font-size="10" fill="#666666">实践体验</text>
    
    <rect x="400" y="370" width="120" height="40" fill="#ffffff" stroke="#4caf50" stroke-width="1" rx="3"/>
    <text x="410" y="385" font-family="Arial" font-size="12" fill="#212121">实相般若</text>
    <text x="405" y="400" font-family="Arial" font-size="10" fill="#666666">直观证悟</text>
    
    <!-- 认知过程 -->
    <rect x="540" y="370" width="120" height="40" fill="#ffffff" stroke="#4caf50" stroke-width="1" rx="3"/>
    <text x="550" y="385" font-family="Arial" font-size="12" fill="#212121">事物认知</text>
    <text x="545" y="400" font-family="Arial" font-size="10" fill="#666666">What层面</text>
    
    <rect x="680" y="370" width="120" height="40" fill="#ffffff" stroke="#4caf50" stroke-width="1" rx="3"/>
    <text x="690" y="385" font-family="Arial" font-size="12" fill="#212121">知识体系</text>
    <text x="685" y="400" font-family="Arial" font-size="10" fill="#666666">结构化认知</text>
  </g>
  
  <!-- 第四层：方法论层 -->
  <g id="methodology-layer">
    <rect x="100" y="440" width="1000" height="120" fill="#fff3e0" stroke="#ff9800" stroke-width="2" rx="5"/>
    <text x="110" y="460" font-family="Arial" font-size="12" font-style="italic" fill="#666666">«方法论层»</text>
    <text x="110" y="480" font-family="Arial" font-size="16" font-weight="bold" fill="#212121">方法论 (Methodology)</text>
    
    <!-- 思维框架 -->
    <rect x="120" y="490" width="180" height="60" fill="#ffffff" stroke="#ff9800" stroke-width="1" rx="3"/>
    <text x="130" y="510" font-family="Arial" font-size="12" font-weight="bold" fill="#212121">思维框架</text>
    <text x="125" y="525" font-family="Arial" font-size="10" fill="#666666">• 事物认知主线</text>
    <text x="125" y="540" font-family="Arial" font-size="10" fill="#666666">• 问题解决主线</text>
    
    <!-- 学习方法 -->
    <rect x="320" y="490" width="180" height="60" fill="#ffffff" stroke="#ff9800" stroke-width="1" rx="3"/>
    <text x="330" y="510" font-family="Arial" font-size="12" font-weight="bold" fill="#212121">学习实践复盘</text>
    <text x="325" y="525" font-family="Arial" font-size="10" fill="#666666">• 学习→实践→复盘</text>
    <text x="325" y="540" font-family="Arial" font-size="10" fill="#666666">• 闭环持续改进</text>
    
    <!-- 知识管理 -->
    <rect x="520" y="490" width="180" height="60" fill="#ffffff" stroke="#ff9800" stroke-width="1" rx="3"/>
    <text x="530" y="510" font-family="Arial" font-size="12" font-weight="bold" fill="#212121">知识经验库</text>
    <text x="525" y="525" font-family="Arial" font-size="10" fill="#666666">• 知识→经验→方法论</text>
    <text x="525" y="540" font-family="Arial" font-size="10" fill="#666666">• 模式匹配基础</text>
    
    <!-- 科学方法 -->
    <rect x="720" y="490" width="180" height="60" fill="#ffffff" stroke="#ff9800" stroke-width="1" rx="3"/>
    <text x="730" y="510" font-family="Arial" font-size="12" font-weight="bold" fill="#212121">科学方法论</text>
    <text x="725" y="525" font-family="Arial" font-size="10" fill="#666666">• 假设→实验→验证</text>
    <text x="725" y="540" font-family="Arial" font-size="10" fill="#666666">• 理性分析</text>
  </g>
  
  <!-- 第五层：逻辑层 -->
  <g id="logic-layer">
    <rect x="100" y="580" width="1000" height="100" fill="#f3e5f5" stroke="#7b1fa2" stroke-width="2" rx="5"/>
    <text x="110" y="600" font-family="Arial" font-size="12" font-style="italic" fill="#666666">«逻辑层»</text>
    <text x="110" y="620" font-family="Arial" font-size="16" font-weight="bold" fill="#212121">逻辑体系 (Logic System)</text>
    
    <!-- 形式逻辑 -->
    <rect x="120" y="630" width="150" height="40" fill="#ffffff" stroke="#7b1fa2" stroke-width="1" rx="3"/>
    <text x="130" y="645" font-family="Arial" font-size="12" fill="#212121">形式逻辑</text>
    <text x="125" y="660" font-family="Arial" font-size="10" fill="#666666">归纳演绎推理</text>
    
    <!-- 辩证逻辑 -->
    <rect x="290" y="630" width="150" height="40" fill="#ffffff" stroke="#7b1fa2" stroke-width="1" rx="3"/>
    <text x="300" y="645" font-family="Arial" font-size="12" fill="#212121">辩证逻辑</text>
    <text x="295" y="660" font-family="Arial" font-size="10" fill="#666666">对立统一规律</text>
    
    <!-- 模式匹配 -->
    <rect x="460" y="630" width="150" height="40" fill="#ffffff" stroke="#7b1fa2" stroke-width="1" rx="3"/>
    <text x="470" y="645" font-family="Arial" font-size="12" fill="#212121">模式匹配</text>
    <text x="465" y="660" font-family="Arial" font-size="10" fill="#666666">问题解决核心</text>
    
    <!-- 结构逻辑 -->
    <rect x="630" y="630" width="150" height="40" fill="#ffffff" stroke="#7b1fa2" stroke-width="1" rx="3"/>
    <text x="640" y="645" font-family="Arial" font-size="12" fill="#212121">结构逻辑</text>
    <text x="635" y="660" font-family="Arial" font-size="10" fill="#666666">金字塔原理</text>
    
    <!-- 系统逻辑 -->
    <rect x="800" y="630" width="150" height="40" fill="#ffffff" stroke="#7b1fa2" stroke-width="1" rx="3"/>
    <text x="810" y="645" font-family="Arial" font-size="12" fill="#212121">系统逻辑</text>
    <text x="805" y="660" font-family="Arial" font-size="10" fill="#666666">整体性思维</text>
  </g>
  
  <!-- 第六层：实践层 -->
  <g id="practice-layer">
    <rect x="100" y="700" width="1000" height="120" fill="#fce4ec" stroke="#e91e63" stroke-width="2" rx="5"/>
    <text x="110" y="720" font-family="Arial" font-size="12" font-style="italic" fill="#666666">«实践层»</text>
    <text x="110" y="740" font-family="Arial" font-size="16" font-weight="bold" fill="#212121">实践应用 (Practice Application)</text>
    
    <!-- 具体实践活动 -->
    <rect x="120" y="750" width="140" height="60" fill="#ffffff" stroke="#e91e63" stroke-width="1" rx="3"/>
    <text x="130" y="770" font-family="Arial" font-size="12" font-weight="bold" fill="#212121">问题分析解决</text>
    <text x="125" y="785" font-family="Arial" font-size="10" fill="#666666">• 定义→分析→解决</text>
    <text x="125" y="800" font-family="Arial" font-size="10" fill="#666666">• 验证→反馈</text>
    
    <rect x="280" y="750" width="140" height="60" fill="#ffffff" stroke="#e91e63" stroke-width="1" rx="3"/>
    <text x="290" y="770" font-family="Arial" font-size="12" font-weight="bold" fill="#212121">学习成长</text>
    <text x="285" y="785" font-family="Arial" font-size="10" fill="#666666">• 持续学习</text>
    <text x="285" y="800" font-family="Arial" font-size="10" fill="#666666">• 能力提升</text>
    
    <rect x="440" y="750" width="140" height="60" fill="#ffffff" stroke="#e91e63" stroke-width="1" rx="3"/>
    <text x="450" y="770" font-family="Arial" font-size="12" font-weight="bold" fill="#212121">决策制定</text>
    <text x="445" y="785" font-family="Arial" font-size="10" fill="#666666">• 结构化决策</text>
    <text x="445" y="800" font-family="Arial" font-size="10" fill="#666666">• 风险评估</text>
    
    <rect x="600" y="750" width="140" height="60" fill="#ffffff" stroke="#e91e63" stroke-width="1" rx="3"/>
    <text x="610" y="770" font-family="Arial" font-size="12" font-weight="bold" fill="#212121">创新创造</text>
    <text x="605" y="785" font-family="Arial" font-size="10" fill="#666666">• 突破思维定势</text>
    <text x="605" y="800" font-family="Arial" font-size="10" fill="#666666">• 价值创造</text>
    
    <rect x="760" y="750" width="140" height="60" fill="#ffffff" stroke="#e91e63" stroke-width="1" rx="3"/>
    <text x="770" y="770" font-family="Arial" font-size="12" font-weight="bold" fill="#212121">修行实践</text>
    <text x="765" y="785" font-family="Arial" font-size="10" fill="#666666">• 日常修行</text>
    <text x="765" y="800" font-family="Arial" font-size="10" fill="#666666">• 自我完善</text>
  </g>
  
  <!-- 层次间的关系连接 -->
  <!-- 价值体系到本体论 -->
  <line x1="600" y1="180" x2="600" y2="200" stroke="#212121" stroke-width="2" marker-end="url(#arrowhead)"/>
  <text x="610" y="195" font-family="Arial" font-size="10" fill="#666666">指导</text>
  
  <!-- 本体论到认识论 -->
  <line x1="600" y1="300" x2="600" y2="320" stroke="#212121" stroke-width="2" marker-end="url(#arrowhead)"/>
  <text x="610" y="315" font-family="Arial" font-size="10" fill="#666666">支撑</text>
  
  <!-- 认识论到方法论 -->
  <line x1="600" y1="420" x2="600" y2="440" stroke="#212121" stroke-width="2" marker-end="url(#arrowhead)"/>
  <text x="610" y="435" font-family="Arial" font-size="10" fill="#666666">指导</text>
  
  <!-- 方法论到逻辑层 -->
  <line x1="600" y1="560" x2="600" y2="580" stroke="#212121" stroke-width="2" marker-end="url(#arrowhead)"/>
  <text x="610" y="575" font-family="Arial" font-size="10" fill="#666666">运用</text>
  
  <!-- 逻辑层到实践层 -->
  <line x1="600" y1="680" x2="600" y2="700" stroke="#212121" stroke-width="2" marker-end="url(#arrowhead)"/>
  <text x="610" y="695" font-family="Arial" font-size="10" fill="#666666">指导</text>
  
  <!-- 实践层到价值体系的反馈 -->
  <path d="M 150 820 Q 50 500 150 180" fill="none" stroke="#757575" stroke-width="2" stroke-dasharray="5,5" marker-end="url(#dependency)"/>
  <text x="30" y="500" font-family="Arial" font-size="10" fill="#666666" transform="rotate(-90 30 500)">实践验证反馈</text>
  
  <!-- 核心闭环：学习-实践-复盘 -->
  <ellipse cx="1200" cy="400" rx="80" ry="120" fill="none" stroke="#ff5722" stroke-width="3" stroke-dasharray="10,5"/>
  <text x="1120" y="280" font-family="Arial" font-size="12" font-weight="bold" fill="#ff5722">核心闭环</text>
  <text x="1110" y="300" font-family="Arial" font-size="10" fill="#ff5722">学习→实践→复盘</text>
  
  <!-- 系统边界 -->
  <rect x="80" y="80" width="1040" height="760" fill="none" stroke="#424242" stroke-width="3" stroke-dasharray="15,10"/>
  <text x="90" y="75" font-family="Arial" font-size="14" font-weight="bold" fill="#424242">哲学系统边界</text>
  
  <!-- 版权信息 -->
  <text x="700" y="970" text-anchor="middle" font-family="Arial" font-size="12" fill="#666666">
    基于MBSE方法论构建的完整哲学系统架构 - 体现价值体系、本体论、认识论、方法论、逻辑体系的有机统一
  </text>
</svg>